<?xml version="1.0" encoding="UTF-8" standalone="no"?>
<!-- Created with Inkscape (http://www.inkscape.org/) -->

<svg
   width="200mm"
   height="200mm"
   viewBox="0 0 200 200"
   version="1.1"
   id="svg5"
   xml:space="preserve"
   sodipodi:docname="favicon-dark.svg"
   inkscape:version="1.2.2 (b0a84865, 2022-12-01)"
   inkscape:export-filename="favicon-dark.png"
   inkscape:export-xdpi="96"
   inkscape:export-ydpi="96"
   xmlns:inkscape="http://www.inkscape.org/namespaces/inkscape"
   xmlns:sodipodi="http://sodipodi.sourceforge.net/DTD/sodipodi-0.dtd"
   xmlns:xlink="http://www.w3.org/1999/xlink"
   xmlns="http://www.w3.org/2000/svg"
   xmlns:svg="http://www.w3.org/2000/svg"><sodipodi:namedview
     id="namedview7"
     pagecolor="#505050"
     bordercolor="#eeeeee"
     borderopacity="1"
     inkscape:showpageshadow="0"
     inkscape:pageopacity="0"
     inkscape:pagecheckerboard="0"
     inkscape:deskcolor="#505050"
     inkscape:document-units="mm"
     showgrid="false"
     inkscape:zoom="0.56484884"
     inkscape:cx="150.48274"
     inkscape:cy="403.64781"
     inkscape:window-width="1471"
     inkscape:window-height="904"
     inkscape:window-x="41"
     inkscape:window-y="38"
     inkscape:window-maximized="0"
     inkscape:current-layer="layer1" /><defs
     id="defs2"><linearGradient
       inkscape:collect="always"
       id="linearGradient1839"><stop
         style="stop-color:#000000;stop-opacity:1;"
         offset="0"
         id="stop1835" /><stop
         style="stop-color:#1e1122;stop-opacity:1;"
         offset="1"
         id="stop1837" /></linearGradient><linearGradient
       inkscape:collect="always"
       id="linearGradient958"><stop
         style="stop-color:#000000;stop-opacity:1;"
         offset="0"
         id="stop954" /><stop
         style="stop-color:#1e1122;stop-opacity:1;"
         offset="1"
         id="stop956" /></linearGradient><linearGradient
       inkscape:collect="always"
       xlink:href="#linearGradient958"
       id="linearGradient960"
       x1="82.440941"
       y1="46.841438"
       x2="149.42419"
       y2="161.60298"
       gradientUnits="userSpaceOnUse" /><linearGradient
       inkscape:collect="always"
       xlink:href="#linearGradient1839"
       id="linearGradient1841"
       x1="149.42419"
       y1="161.60298"
       x2="74.464943"
       y2="54.095387"
       gradientUnits="userSpaceOnUse" /></defs><g
     inkscape:label="Layer 1"
     inkscape:groupmode="layer"
     id="layer1"><rect
       style="fill:url(#linearGradient960);stroke-width:2.265;fill-opacity:1;stroke:url(#linearGradient1841);stroke-dasharray:none"
       id="rect286"
       width="200"
       height="200"
       x="-0.4684144"
       y="-0.93682879"
       ry="45.90461" /></g><path
     style="fill:#ffffff;stroke-width:0.433354;fill-opacity:1"
     d="m 53.620568,186.86731 c -0.772211,-0.33567 -3.435081,-2.61938 -5.917474,-5.07491 -4.513458,-4.46464 -4.513458,-4.46464 -4.98794,-7.31693 -0.949162,-5.70581 -0.642541,-9.83772 1.096926,-14.78208 0.864279,-2.45664 1.908936,-4.85666 2.321459,-5.33334 0.412547,-0.4767 1.536266,-2.03676 2.497183,-3.46683 2.305307,-3.43084 2.953867,-3.97159 8.560639,-7.13782 5.881052,-3.3211 9.184929,-4.28711 16.684089,-4.87817 9.21841,-0.72657 13.36363,-0.11547 24.30621,3.58325 4.90721,1.65871 9.21577,3.01582 9.57459,3.01582 0.55978,0 0.69169,-1.79939 0.92911,-12.67557 0.15219,-6.97158 0.50729,-22.8651 0.78911,-35.318937 0.28183,-12.453859 0.37896,-22.776814 0.21586,-22.939908 -0.16311,-0.163121 -1.21911,-0.250522 -2.34666,-0.194249 -2.08402,0.104045 -5.29994,1.818662 -5.30059,2.826174 -9e-4,1.980872 -1.91775,19.912423 -2.67699,25.04736 -0.94094,6.36381 -0.94094,6.36381 -4.01267,11.26717 -3.00523,4.7973 -3.17941,4.98062 -8.04964,8.47214 -4.52947,3.24722 -5.16109,3.56932 -7.01079,3.57516 -2.55177,0.009 -2.88365,-0.51492 -1.48798,-2.34474 1.31984,-1.73039 4.11863,-8.61346 5.64933,-13.89334 1.76517,-6.08869 2.19318,-15.600327 1.61095,-35.800273 -0.58833,-20.411978 -0.22793,-27.06631 1.72298,-31.812835 2.46279,-5.991899 4.7475,-9.219568 9.99255,-14.11673 7.39598,-6.905401 13.31473,-12.030141 15.86803,-13.739308 2.14543,-1.436127 2.41267,-1.507125 4.27831,-1.136639 1.88189,0.373706 2.03374,0.512847 2.79608,2.561934 0.68245,1.834348 1.14884,2.358577 3.04002,3.41703 2.06138,1.153698 2.47214,1.230128 5.31809,0.989557 4.25742,-0.359883 5.41371,-0.881378 7.41363,-3.343576 1.97183,-2.427632 3.26872,-2.748928 4.36183,-1.080623 1.16693,1.780952 0.46891,3.226867 -3.40308,7.049358 -3.31396,3.271581 -3.88691,3.645965 -8.32576,5.440425 -7.27613,2.94147 -7.82892,3.021947 -14.12202,2.055912 -6.13015,-0.941017 -6.75296,-1.117213 -8.04219,-2.275236 -1.57834,-1.417709 -3.12437,-0.881481 -4.37735,1.51826 -1.08112,2.070573 -1.08112,2.070573 -1.00592,22.52289 0.0516,14.038978 0.22124,20.542581 0.54094,20.740171 0.95451,0.589915 4.06486,-0.208472 5.59689,-1.436667 1.55808,-1.249051 1.55808,-1.249051 1.85747,-11.089151 0.28691,-9.430233 0.34009,-9.881054 1.27665,-10.823237 0.97729,-0.983135 0.97729,-0.983135 1.93441,-0.09146 0.8548,0.796382 0.95709,1.322751 0.95709,4.92508 0,2.21837 0.1267,5.818439 0.28157,8.000155 0.26444,3.725445 0.34015,3.966748 1.24446,3.966748 1.37401,0 6.80559,-3.649548 14.01095,-9.41414 3.76227,-3.009985 6.71594,-5.054358 7.47534,-5.174042 1.25546,-0.197864 1.25546,-0.197864 1.25546,2.724132 0,3.423294 2.4608,9.576012 6.15961,15.400829 2.44893,3.856509 4.05458,5.21302 7.05189,5.957629 5.48465,1.362543 4.12318,3.839556 -3.46107,6.296865 -4.01428,1.30062 -17.98414,13.025445 -17.98414,15.093965 0,0.41047 1.34947,1.43375 3.33945,2.532241 3.92409,2.166146 4.95818,3.235226 6.2398,6.451006 0.52244,1.31088 1.4813,3.35848 2.13078,4.55021 0.6495,1.1917 1.61525,3.62933 2.14612,5.4169 0.53087,1.78759 2.18921,6.66282 3.68517,10.83383 1.49596,4.17102 3.2518,9.40778 3.90183,11.63724 1.48646,5.09822 3.71403,8.98417 5.32675,9.29246 1.315,0.25138 3.0963,-1.02106 4.84047,-3.45761 1.52362,-2.12852 3.15392,-1.90581 3.53916,0.48345 0.2626,1.62845 0.0809,1.97781 -4.05592,7.80035 -8.08376,11.37777 -8.5889,11.75656 -12.79884,9.59749 -3.98406,-2.0432 -6.18106,-4.9275 -9.76435,-12.81901 -4.1933,-9.23499 -3.51457,-9.07688 -12.80356,-2.98267 -6.12025,4.01529 -7.47734,5.15276 -13.99668,11.73156 -9.07295,9.15571 -8.83323,9.09236 -12.15048,3.2114 -2.25419,-3.99636 -2.35595,-4.10254 -5.35421,-5.58776 -4.94004,-2.44708 -12.74234,-4.55847 -17.99772,-4.87038 -4.26886,-0.25335 -4.88316,-0.17551 -11.321777,1.43457 -6.015524,1.50427 -7.186181,1.94949 -10.056932,3.82473 -3.248928,2.12227 -3.248928,2.12227 -5.402268,6.88916 -2.426648,5.37191 -2.982058,8.47507 -2.111022,11.79472 0.777812,2.96439 6.094448,8.28798 9.210868,9.22291 1.693661,0.50809 2.197687,0.86812 2.308378,1.64891 0.303796,2.14307 -2.046102,2.89646 -5.012459,1.60702 z M 121.8607,144.75552 c 3.75866,-2.54154 7.74055,-5.37086 8.84864,-6.2874 2.01473,-1.66641 2.01473,-1.66641 1.21701,-5.2378 -2.3908,-10.70376 -3.72667,-14.837 -5.66603,-17.53107 -2.23192,-3.10046 -4.52291,-4.67393 -8.27507,-5.68336 -2.42209,-0.65161 -2.73965,-0.86335 -2.86042,-1.90723 -0.14197,-1.22725 0.74615,-2.26283 14.57377,-16.993847 4.90419,-5.224553 4.90419,-5.224553 4.66042,-8.09705 -0.29092,-3.42825 -2.06889,-7.522614 -5.05681,-11.644825 -3.83321,-5.288459 -5.18727,-5.644019 -10.76243,-2.826125 -5.0052,2.529835 -4.62276,1.131678 -5.21817,19.076857 -0.3454,10.410483 -0.41269,23.27793 -0.20224,38.67677 0.30052,21.98977 0.35284,23.07604 1.1114,23.07604 0.43781,0 3.8713,-2.07943 7.62993,-4.62096 z m -66.511094,-6.9342 c -0.850461,-0.34162 -0.662774,-1.39374 1.16025,-6.50425 1.331391,-3.73235 1.963466,-6.57448 2.903243,-13.05452 1.201316,-8.28344 1.201316,-8.28344 0.465627,-13.82757 -0.404624,-3.04927 -0.95641,-8.274257 -1.226193,-11.611077 -0.479593,-5.931808 -0.52309,-6.107223 -1.952902,-7.875755 -1.746088,-2.159691 -3.780014,-2.946409 -6.717825,-2.598464 -3.976131,0.470895 -5.574491,1.546448 -7.741124,5.209042 -2.1286,3.598297 -2.391576,3.760867 -3.86432,2.388777 -1.387259,-1.29243 -0.993582,-3.266681 1.700084,-8.525632 1.563548,-3.052592 3.01003,-5.102021 5.299218,-7.508156 3.148631,-3.309489 3.148631,-3.309489 8.272837,-4.742738 2.818323,-0.788278 5.395796,-1.639119 5.727733,-1.890745 0.33194,-0.251626 1.945163,-4.583052 3.584945,-9.625393 2.954741,-9.085916 3.019311,-9.226416 7.222011,-15.714354 4.44556,-6.862848 5.15709,-7.581904 10.89927,-11.014566 1.46125,-0.873532 3.17129,-1.588235 3.8001,-1.588235 1.0276,0 1.11437,0.120593 0.85754,1.191721 -0.39104,1.630834 -1.2706,3.303716 -3.00993,5.724738 -1.65871,2.308801 -5.11967,12.438858 -6.07618,17.784668 -0.73796,4.124404 -0.75873,9.678893 -0.10312,27.58205 0.52603,14.364762 0.52603,14.364762 -0.91155,22.751029 -1.39083,8.11345 -1.53805,8.61561 -4.52587,15.43673 -3.20049,7.30668 -3.34982,7.52736 -11.095522,16.39822 -1.139859,1.30544 -3.44933,2.10415 -4.668322,1.61448 z M 39.478042,43.595478 c -4.592248,-4.042262 -5.618405,-9.215683 -3.25593,-16.415012 1.883092,-5.738474 4.25983,-8.069754 11.002716,-10.792261 5.25244,-2.120728 6.436915,-2.213316 17.116856,-1.337982 19.930636,1.633527 21.862526,1.546754 25.233686,-1.133399 2.09853,-1.66838 2.87787,-1.802343 4.19764,-0.721543 0.92606,0.758368 0.92606,0.758368 -0.24048,2.491781 -2.46657,3.665154 -5.50993,6.727392 -9.19287,9.249881 -3.82734,2.621396 -3.82734,2.621396 -8.98753,2.740731 -4.26546,0.09864 -7.00109,-0.170032 -15.777324,-1.549539 -10.617157,-1.668874 -10.617157,-1.668874 -13.390484,-0.714293 -5.389579,1.855097 -7.16225,6.112079 -5.495492,13.197161 0.457334,1.944022 0.922813,2.807902 1.94332,3.606568 0.843396,0.660057 1.341944,1.441051 1.341944,2.102204 0,1.741248 -2.074747,1.407016 -4.496052,-0.724297 z"
     id="path464" /></svg>
