<?xml version="1.0" encoding="UTF-8" standalone="no"?>
<!-- Created with Inkscape (http://www.inkscape.org/) -->

<svg
   width="200mm"
   height="200mm"
   viewBox="0 0 200 200"
   version="1.1"
   id="svg5"
   xml:space="preserve"
   sodipodi:docname="k-black.svg"
   inkscape:version="1.2.2 (b0a84865, 2022-12-01)"
   xmlns:inkscape="http://www.inkscape.org/namespaces/inkscape"
   xmlns:sodipodi="http://sodipodi.sourceforge.net/DTD/sodipodi-0.dtd"
   xmlns="http://www.w3.org/2000/svg"
   xmlns:svg="http://www.w3.org/2000/svg"><sodipodi:namedview
     id="namedview7"
     pagecolor="#505050"
     bordercolor="#eeeeee"
     borderopacity="1"
     inkscape:showpageshadow="0"
     inkscape:pageopacity="0"
     inkscape:pagecheckerboard="0"
     inkscape:deskcolor="#505050"
     inkscape:document-units="mm"
     showgrid="false"
     inkscape:zoom="0.56484884"
     inkscape:cx="-9.7371184"
     inkscape:cy="478.00399"
     inkscape:window-width="1512"
     inkscape:window-height="916"
     inkscape:window-x="0"
     inkscape:window-y="38"
     inkscape:window-maximized="1"
     inkscape:current-layer="layer1" /><defs
     id="defs2" /><g
     inkscape:label="Layer 1"
     inkscape:groupmode="layer"
     id="layer1"><path
       style="fill:#000000;stroke-width:0.495261"
       d="m 46.994934,199.27693 c -0.882527,-0.38362 -3.925806,-2.99358 -6.762827,-5.79991 -5.158237,-5.10244 -5.158237,-5.10244 -5.700503,-8.3622 -1.084756,-6.52092 -0.734332,-11.24311 1.253631,-16.8938 0.987747,-2.8076 2.181641,-5.55047 2.653095,-6.09525 0.471483,-0.5448 1.755733,-2.32773 2.853924,-3.96209 2.634636,-3.92096 3.375847,-4.53896 9.783587,-8.1575 6.721201,-3.79555 10.497057,-4.89956 19.06753,-5.57505 10.53532,-0.83038 15.272721,-0.13197 27.778523,4.09513 5.608236,1.89567 10.532306,3.44665 10.942386,3.44665 0.63975,0 0.7905,-2.05644 1.06184,-14.48636 0.17393,-7.96751 0.57977,-26.13154 0.90185,-40.364495 0.32208,-14.232987 0.43308,-26.030649 0.24668,-26.217043 -0.1864,-0.186423 -1.39326,-0.28631 -2.68189,-0.221998 -2.38174,0.118909 -6.05707,2.078471 -6.05781,3.229913 -0.001,2.263854 -2.19172,22.757061 -3.059426,28.625553 -1.075365,7.27292 -1.075365,7.27292 -4.585901,12.87677 -3.434551,5.48262 -3.633622,5.69213 -9.199594,9.68244 -5.176529,3.71111 -5.89838,4.07922 -8.012331,4.0859 -2.916298,0.01 -3.295593,-0.58848 -1.700542,-2.6797 1.508385,-1.97759 4.707006,-9.84395 6.456371,-15.8781 2.01734,-6.9585 2.50649,-17.828947 1.841091,-40.914603 C 83.402239,46.383212 83.814122,38.778261 86.043737,33.353661 88.858353,26.505776 91.469446,22.817013 97.463792,17.220255 105.91634,9.3283683 112.68062,3.4715236 115.59869,1.5181896 c 2.45191,-1.64128751 2.75732,-1.72242806 4.88949,-1.29901527 2.15072,0.42709237 2.32427,0.58611084 3.19552,2.92792467 0.77994,2.0963973 1.31296,2.6955166 3.47431,3.9051771 2.35586,1.3185125 2.82529,1.405861 6.07781,1.1309221 4.86562,-0.4112944 6.1871,-1.0072887 8.47273,-3.8212302 2.25351,-2.7744361 3.73567,-3.1416316 4.98495,-1.2349966 1.33362,2.0353731 0.53589,3.6878482 -3.88925,8.0564076 -3.78738,3.73895 -4.44217,4.166818 -9.51515,6.217629 -8.31558,3.36168 -8.94733,3.453654 -16.13945,2.349614 -7.00589,-1.075448 -7.71767,-1.276815 -9.19107,-2.60027 -1.80382,-1.620239 -3.57071,-1.007407 -5.00269,1.735155 -1.23556,2.366369 -1.23556,2.366369 -1.14962,25.740445 0.059,16.044545 0.25284,23.477235 0.61822,23.703051 1.09086,0.674189 4.64554,-0.238254 6.39645,-1.641904 1.78065,-1.427488 1.78065,-1.427488 2.12281,-12.673316 0.3279,-10.777409 0.38868,-11.292633 1.45904,-12.369414 1.1169,-1.123582 1.1169,-1.123582 2.21074,-0.10452 0.97692,0.910151 1.09382,1.511715 1.09382,5.628663 0,2.535279 0.14481,6.649643 0.3218,9.143033 0.30222,4.257652 0.38874,4.533427 1.42224,4.533427 1.5703,0 7.77782,-4.170912 16.01251,-10.759018 4.29974,-3.439982 7.67537,-5.776408 8.54325,-5.91319 1.4348,-0.22613 1.4348,-0.22613 1.4348,3.113294 0,3.912335 2.81235,10.944013 7.03956,17.600947 2.79878,4.407438 4.63381,5.957737 8.05931,6.808718 6.26817,1.557193 4.7122,4.388065 -3.95551,7.196418 -4.58775,1.486422 -20.55331,14.886216 -20.55331,17.250238 0,0.469109 1.54226,1.638576 3.81651,2.89399 4.48469,2.475601 5.6665,3.697411 7.13121,7.372581 0.59707,1.49815 1.69291,3.83827 2.43518,5.20024 0.74228,1.36195 1.84599,4.1478 2.45271,6.19075 0.6067,2.04296 2.50194,7.61464 4.21162,12.38151 1.70967,4.76689 3.71634,10.75175 4.45923,13.29971 1.69881,5.82653 4.2446,10.26762 6.08772,10.61995 1.50285,0.28729 3.53863,-1.16692 5.53196,-3.95156 1.74128,-2.43259 3.60448,-2.17807 4.04476,0.55252 0.3001,1.86108 0.0925,2.26035 -4.63534,8.91469 -9.23858,13.00316 -9.81589,13.43606 -14.62725,10.96856 -4.5532,-2.33509 -7.06407,-5.63144 -11.15925,-14.65031 -4.79235,-10.55426 -4.01665,-10.37356 -14.63264,-3.40876 -6.99457,4.58891 -8.54553,5.88887 -15.9962,13.4075 -10.36909,10.46367 -10.09513,10.39127 -13.88627,3.67017 -2.57622,-4.56727 -2.692518,-4.68862 -6.119101,-6.38601 -5.645754,-2.79666 -14.562666,-5.20968 -20.568819,-5.56614 -4.878697,-0.28956 -5.580753,-0.20059 -12.93917,1.6395 -6.874885,1.71917 -8.212777,2.22799 -11.493636,4.37112 -3.713061,2.42545 -3.713061,2.42545 -6.174021,7.87333 -2.773312,6.13933 -3.408066,9.68578 -2.412597,13.47967 0.888928,3.38788 6.965084,9.47199 10.526707,10.54047 1.935612,0.58068 2.511642,0.99215 2.638146,1.88448 0.347195,2.44921 -2.338402,3.31023 -5.728525,1.83659 z m 77.988726,-48.12777 c 4.2956,-2.90461 8.84633,-6.13812 10.11273,-7.18559 2.30254,-1.90447 2.30254,-1.90447 1.39086,-5.98606 -2.73235,-12.23287 -4.25905,-16.95657 -6.47547,-20.03551 -2.55076,-3.54338 -5.16903,-5.34163 -9.45721,-6.49527 -2.7681,-0.7447 -3.13103,-0.98668 -3.26905,-2.17968 -0.16226,-1.40258 0.85274,-2.5861 16.65574,-19.421547 5.60478,-5.97092 5.60478,-5.97092 5.32619,-9.253773 -0.33249,-3.918 -2.36446,-8.597273 -5.77921,-13.308372 -4.38082,-6.043951 -5.92832,-6.450306 -12.29992,-3.229856 -5.72023,2.891239 -5.28316,1.293346 -5.96363,21.802122 -0.39474,11.897689 -0.47165,26.603356 -0.23113,44.202026 0.34345,25.13116 0.40324,26.37261 1.27017,26.37261 0.50036,0 4.42434,-2.37649 8.71993,-5.2811 z m -76.012683,-7.92479 c -0.971954,-0.39043 -0.757455,-1.59285 1.326001,-7.43343 1.52159,-4.26555 2.243961,-7.51369 3.317992,-14.91945 1.372933,-9.46679 1.372933,-9.46679 0.532144,-15.80294 -0.462427,-3.48488 -1.093039,-9.456293 -1.401362,-13.269803 -0.548106,-6.779209 -0.597817,-6.979684 -2.231888,-9.000862 -1.995529,-2.468219 -4.320017,-3.367325 -7.677515,-2.969673 -4.544149,0.538165 -6.370846,1.767369 -8.846997,5.953189 -2.432686,4.112341 -2.73323,4.298131 -4.416366,2.730043 -1.58544,-1.477073 -1.135522,-3.733361 1.942953,-9.74359 1.786912,-3.488677 3.440033,-5.830882 6.056249,-8.58075 3.598434,-3.782272 3.598434,-3.782272 9.45467,-5.420272 3.220941,-0.90089 6.166623,-1.873279 6.545981,-2.160851 0.379359,-0.287573 2.223043,-5.237774 4.09708,-11.000449 3.376844,-10.383904 3.450647,-10.544476 8.25373,-17.959262 5.080642,-7.843254 5.893817,-8.665032 12.456309,-12.588075 1.669994,-0.998322 3.624328,-1.815125 4.342966,-1.815125 1.174396,0 1.273572,0.13782 0.980046,1.361966 -0.446903,1.863811 -1.452113,3.775675 -3.439921,6.542557 -1.895665,2.638631 -5.85105,14.215839 -6.944198,20.325335 -0.843391,4.713605 -0.867124,11.061593 -0.117857,31.522342 0.601181,16.416876 0.601181,16.416876 -1.041777,26.00118 -1.589516,9.27251 -1.75777,9.84641 -5.172415,17.64198 -3.65771,8.35048 -3.828366,8.60269 -12.680599,18.74081 -1.302696,1.49194 -3.942092,2.40475 -5.335226,1.84513 z M 30.832049,35.537691 C 25.583766,30.917963 24.411014,25.005482 27.110986,16.777677 29.263091,10.219422 31.979363,7.5551026 39.685518,4.4436659 45.688306,2.0199759 47.041992,1.914162 59.247638,2.9145435 82.025513,4.7814317 84.233381,4.6822623 88.086131,1.6192302 90.484449,-0.28748905 91.375132,-0.44059012 92.883436,0.79460998 93.941787,1.661316 93.941787,1.661316 92.608598,3.6423585 89.789665,7.8311071 86.311539,11.330807 82.102471,14.213652 c -4.374102,2.99588 -4.374102,2.99588 -10.27146,3.132263 -4.874817,0.112732 -8.00125,-0.194321 -18.031233,-1.770901 -12.133893,-1.907285 -12.133893,-1.907285 -15.303411,-0.816335 -6.159518,2.120111 -8.185427,6.985234 -6.280561,15.082469 0.522668,2.22174 1.054643,3.209031 2.220937,4.121792 0.963882,0.754351 1.53365,1.646916 1.53365,2.402519 0,1.989998 -2.371139,1.608018 -5.138344,-0.827768 z"
       id="path464" /></g></svg>
