<?xml version="1.0" encoding="UTF-8" standalone="no"?>
<svg
   viewBox="0 0 1024 1024"
   version="1.1"
   class=""
   id="svg664"
   sodipodi:docname="minten-migmug.svg"
   inkscape:version="1.2.2 (b0a84865, 2022-12-01)"
   xmlns:inkscape="http://www.inkscape.org/namespaces/inkscape"
   xmlns:sodipodi="http://sodipodi.sourceforge.net/DTD/sodipodi-0.dtd"
   xmlns="http://www.w3.org/2000/svg"
   xmlns:svg="http://www.w3.org/2000/svg">
  <defs
     id="defs668" />
  <sodipodi:namedview
     id="namedview666"
     pagecolor="#505050"
     bordercolor="#eeeeee"
     borderopacity="1"
     inkscape:showpageshadow="0"
     inkscape:pageopacity="0"
     inkscape:pagecheckerboard="0"
     inkscape:deskcolor="#505050"
     showgrid="false"
     inkscape:zoom="0.56469196"
     inkscape:cx="567.56608"
     inkscape:cy="527.72134"
     inkscape:window-width="1512"
     inkscape:window-height="916"
     inkscape:window-x="0"
     inkscape:window-y="38"
     inkscape:window-maximized="1"
     inkscape:current-layer="svg664">
    <inkscape:grid
       type="xygrid"
       id="grid5096" />
  </sodipodi:namedview>
  <g
     transform="scale(3.9437162)"
     id="g626">
    <g
       fill="none"
       id="g624">
      <path
         id="rect620"
         style="fill:#ffffff"
         d="M 2.5802251,0 128.00041,125.41847 V 0 Z M 0,2.5862217 V 128.00041 h 125.41419 z" />
    </g>
  </g>
  <g
     transform="matrix(3.9437162,0,0,3.9437162,519.20433,0)"
     id="g646">
    <path
       id="rect628"
       style="fill:#ffffff"
       d="M -4.1119126e-4,0 V 128.00041 H 128 V 0 Z M 47.724331,37.173403 A 10.523423,10.523423 0 0 1 58.2474,47.696472 10.523423,10.523423 0 0 1 47.724331,58.219542 10.523423,10.523423 0 0 1 37.200404,47.696472 10.523423,10.523423 0 0 1 47.724331,37.173403 Z m 31.897305,0 A 10.523423,10.523423 0 0 1 90.145562,47.696472 10.523423,10.523423 0 0 1 79.621636,58.219542 10.523423,10.523423 0 0 1 69.098566,47.696472 10.523423,10.523423 0 0 1 79.621636,37.173403 Z M 47.724331,69.070708 A 10.523423,10.523423 0 0 1 58.2474,79.594634 10.523423,10.523423 0 0 1 47.724331,90.117703 10.523423,10.523423 0 0 1 37.200404,79.594634 10.523423,10.523423 0 0 1 47.724331,69.070708 Z m 31.897305,0 A 10.523423,10.523423 0 0 1 90.145562,79.594634 10.523423,10.523423 0 0 1 79.621636,90.117703 10.523423,10.523423 0 0 1 69.098566,79.594634 10.523423,10.523423 0 0 1 79.621636,69.070708 Z" />
  </g>
  <g
     transform="matrix(3.9437162,0,0,3.9437162,0,519.20433)"
     id="g656">
    <path
       id="path648"
       d="M 65.82658,-4.1119126e-4 V 46.267172 c 8.970396,0.91832 15.999623,8.525189 15.999623,17.732622 0,9.207436 -7.029227,16.814303 -15.999623,17.732623 V 128 h 62.17383 V -4.1119126e-4 Z M 62.173831,0.02700156 C 27.672629,0.99415392 0,29.264758 0,63.999794 0,98.734832 27.672629,127.00543 62.173831,127.97259 V 81.732417 C 53.203435,80.814097 46.174208,73.20723 46.174208,63.999794 c 0,-9.207433 7.029227,-16.814302 15.999623,-17.732622 z m 0,49.92889844 C 55.19469,50.849107 49.8261,56.771054 49.8261,63.999794 c 0,7.228742 5.36859,13.15143 12.347731,14.044752 z m 3.652749,0 v 28.088646 c 6.979026,-0.893322 12.346874,-6.81601 12.346874,-14.044752 0,-7.22874 -5.367848,-13.150687 -12.346874,-14.043894 z m 14.177532,27.456439 1.290969,1.292683 32.000099,32.000098 1.29269,1.29097 -2.58366,2.58366 -1.29096,-1.29097 -32.002677,-32.000107 -1.290969,-1.292682 z"
       style="fill:#ffffff;fill-opacity:1" />
  </g>
  <g
     transform="matrix(3.9437162,0,0,3.9437162,519.20433,519.20433)"
     id="g662"
     style="fill:#ffffff;fill-opacity:1">
    <path
       id="path658"
       d="M -4.1119126e-4,-4.1119126e-4 V 128 H 63.999794 C 99.345959,128 128,99.345959 128,63.999794 128,28.65363 99.345959,-4.081012e-4 63.999794,-4.1119126e-4 Z M 62.17342,30.174174 h 1.826374 c 18.660333,0 33.826478,15.165288 33.826478,33.82562 0,18.660333 -15.166145,33.826478 -33.826478,33.826478 H 62.17342 v -3.652749 h 1.826374 c 16.685798,0 30.173729,-13.487931 30.173729,-30.173729 0,-16.685797 -13.487931,-30.173728 -30.173729,-30.173728 H 62.17342 Z"
       style="fill:#ffffff;fill-opacity:1" />
  </g>
</svg>
