<?xml version="1.0" encoding="UTF-8" standalone="no"?>
<svg
   viewBox="0 0 1024 1024"
   version="1.1"
   class=""
   id="svg48"
   sodipodi:docname="minten-migmug-small.svg"
   inkscape:version="1.2.2 (b0a84865, 2022-12-01)"
   xmlns:inkscape="http://www.inkscape.org/namespaces/inkscape"
   xmlns:sodipodi="http://sodipodi.sourceforge.net/DTD/sodipodi-0.dtd"
   xmlns="http://www.w3.org/2000/svg"
   xmlns:svg="http://www.w3.org/2000/svg">
  <defs
     id="defs52" />
  <sodipodi:namedview
     id="namedview50"
     pagecolor="#505050"
     bordercolor="#eeeeee"
     borderopacity="1"
     inkscape:showpageshadow="0"
     inkscape:pageopacity="0"
     inkscape:pagecheckerboard="0"
     inkscape:deskcolor="#505050"
     showgrid="false"
     inkscape:zoom="0.4661832"
     inkscape:cx="588.8243"
     inkscape:cy="622.07303"
     inkscape:window-width="1290"
     inkscape:window-height="736"
     inkscape:window-x="222"
     inkscape:window-y="38"
     inkscape:window-maximized="0"
     inkscape:current-layer="svg48" />
  <g
     transform="scale(3.9437162)"
     id="g10">
    <g
       fill="none"
       id="g8">
      <rect
         width="128"
         height="128"
         fill="#ffffff"
         id="rect4"
         x="0"
         y="0" />
    </g>
  </g>
  <g
     transform="matrix(3.9437162,0,0,3.9437162,519.20432,0)"
     id="g30">
    <rect
       width="128"
       height="128"
       fill="#ffffff"
       id="rect12"
       x="0"
       y="0" />
    <circle
       cx="48"
       cy="48"
       r="11.5"
       fill="#ffffff"
       stroke="#ffffff"
       stroke-width="3.65357px"
       stroke-linecap="square"
       id="circle14" />
    <circle
       cx="80"
       cy="48"
       r="11.5"
       fill="#ffffff"
       stroke="#ffffff"
       stroke-width="3.65357px"
       stroke-linecap="square"
       id="circle18" />
    <circle
       cx="80"
       cy="80"
       r="11.5"
       fill="#ffffff"
       stroke="#ffffff"
       stroke-width="3.65357px"
       stroke-linecap="square"
       id="circle22" />
    <circle
       cx="48"
       cy="80"
       r="11.5"
       fill="#ffffff"
       stroke="#ffffff"
       stroke-width="3.65357px"
       stroke-linecap="square"
       id="circle26" />
  </g>
  <g
     transform="matrix(3.9437162,0,0,3.9437162,0,519.20432)"
     id="g40">
    <path
       d="m 64,0 h 64 V 128 H 64 C 28.6538,128 0,99.3462 0,64 0,28.6538 28.6538,0 64,0 Z"
       fill="#ffffff"
       id="path32" />
  </g>
  <g
     transform="matrix(3.9437162,0,0,3.9437162,519.20432,519.20432)"
     id="g46">
    <path
       d="M 64,128 H 0 L 5.59506e-6,0 64,5.59506e-6 C 99.3462,8.68512e-6 128,28.6538 128,64 c 0,35.3462 -28.6538,64 -64,64 z"
       fill="#ffffff"
       id="path42" />
  </g>
</svg>
